# xmcd
#
# Track frame offsets:
#	150
#	13571
#	25506
#	37574
#	50282
#	63208
#	76224
#	89641
#	103225
#	114062
#	126037
#	138721
#	149736
#	163366
#
# Disc length: 2340 seconds
#
# Revision: 4
# Processed by: cddbd v1.5.2PL0 Copyright (c) Steve Scherf et al.
# Submitted via: EZCDAudioConverter 7.1.5.1
#
DISCID=b309220e
DTITLE=Robert Johnson - The Great Robert Johnson
DYEAR=1900
DGENRE=blues
TTITLE0=I Believe I'll Dust My Broom
TTITLE1=When You Got a Good Friend
TTITLE2=Cross Road Blues
TTITLE3=Come On in My Kitchen
TTITLE4=Preaching Blues (Up Jumped the Devil)
TTITLE5=32-20 Blues
TTITLE6=They're Red Hot
TTITLE7=Terraplane Blues
TTITLE8=From Four 'til Late
TTITLE9=Phonograph Blues
TTITLE10=Traveling Riverside Blues
TTITLE11=Drunken-Hearted Man
TTITLE12=Sweet Home Chicago
TTITLE13=Last Fair Deal Gone Down
EXTD=
EXTT0=
EXTT1=
EXTT2=
EXTT3=
EXTT4=
EXTT5=
EXTT6=
EXTT7=
EXTT8=
EXTT9=
EXTT10=
EXTT11=
EXTT12=
EXTT13=
PLAYORDER=
